<?xml version="1.0" encoding="UTF-8"?>
<svg version="1.1" xmlns="http://www.w3.org/2000/svg" width="245" height="243">
<path d="M0 0 C1.010625 0.763125 2.02125 1.52625 3.0625 2.3125 C3.701875 2.869375 4.34125 3.42625 5 4 C5 4.66 5 5.32 5 6 C5.66 6 6.32 6 7 6 C23.3591743 22.66638884 31.54305431 46.59404347 31.35791016 69.62597656 C31.03062619 80.33037707 28.88558789 91.0180587 25 101 C24.690625 101.86625 24.38125 102.7325 24.0625 103.625 C21.64773749 109.02270443 18.69030154 113.41893602 15 118 C14.67 118.99 14.34 119.98 14 121 C12.35697047 122.68997323 10.68528688 124.35216394 9 126 C8.12023745 127.10037579 7.24551852 128.20479673 6.375 129.3125 C-5.83007956 143.70823486 -26.57803148 152.63658594 -45 155 C-66.82699413 156.21679942 -84.83170232 153.7472737 -104 143 C-104.33 142.34 -104.66 141.68 -105 141 C-105.69480469 140.76152344 -106.38960937 140.52304688 -107.10546875 140.27734375 C-124.38377989 132.65250199 -135.44570197 111.63148641 -142 95 C-143.36126406 90.69006948 -144.32880491 86.46627015 -145 82 C-145.12761719 81.2059375 -145.25523437 80.411875 -145.38671875 79.59375 C-148.6005565 55.88647936 -141.6050851 32.43583585 -128 13 C-127.34 13 -126.68 13 -126 13 C-125.773125 12.46375 -125.54625 11.9275 -125.3125 11.375 C-122.79385089 6.81744447 -119.45047772 2.76236548 -115 0 C-114.34 0 -113.68 0 -113 0 C-112.505 -1.485 -112.505 -1.485 -112 -3 C-109.50699983 -4.73881525 -107.06128742 -6.29540424 -104.4375 -7.8125 C-103.67606689 -8.25464844 -102.91463379 -8.69679688 -102.13012695 -9.15234375 C-69.01157154 -27.86424207 -29.44456293 -24.2519346 0 0 Z M-115 31 C-115 54.76 -115 78.52 -115 103 C-108.60625 103.061875 -102.2125 103.12375 -95.625 103.1875 C-93.62775879 103.21481201 -91.63051758 103.24212402 -89.57275391 103.27026367 C-74.62305851 103.60755904 -74.62305851 103.60755904 -61.375 97.4375 C-58.76737842 95.3284632 -58.76737842 95.3284632 -59 93 C-58.34 92.67 -57.68 92.34 -57 92 C-54.18300323 85.74000718 -54.1808134 79.730622 -56.125 73.25 C-58.80312328 68.60791964 -61.80185186 65.73271605 -67 64 C-67.33 63.34 -67.66 62.68 -68 62 C-67.443125 61.95875 -66.88625 61.9175 -66.3125 61.875 C-62.80367137 60.54733511 -60.8411225 58.16013564 -59 55 C-57.56395722 49.16009271 -57.64200898 43.61630589 -60 38 C-63.51171076 33.64209388 -68.34887095 31.39139231 -73.8046875 30.5859375 C-87.65820571 29.63416907 -101.09586127 30.13099133 -115 31 Z M-37 35 C-37 37.31 -37 39.62 -37 42 C-27.43 42 -17.86 42 -8 42 C-8 40.02 -8 38.04 -8 36 C-9.08108449 34.69338505 -9.08108449 34.69338505 -11.68383789 34.88647461 C-13.43555298 34.89432983 -13.43555298 34.89432983 -15.22265625 34.90234375 C-17.11274414 34.90717773 -17.11274414 34.90717773 -19.04101562 34.91210938 C-20.38151109 34.92046597 -21.72200588 34.92893093 -23.0625 34.9375 C-24.40689942 34.9425134 -25.7513006 34.94707658 -27.09570312 34.95117188 C-30.39717941 34.96300512 -33.69856803 34.97949029 -37 35 Z M-43.5390625 58.703125 C-48.9342066 65.70734716 -49.78980811 73.38283991 -49 82 C-47.96944371 86.80704643 -46.73551877 90.89672185 -44 95 C-43.34 95 -42.68 95 -42 95 C-41.7215625 95.86625 -41.7215625 95.86625 -41.4375 96.75 C-39.08894613 100.42599737 -35.28492509 102.25641447 -31.1875 103.58984375 C-22.83670487 105.15561784 -14.57004335 104.92824286 -7.1328125 100.6328125 C-3.67665404 97.98688899 -0.99528398 94.87701521 1 91 C1 90.01 1 89.02 1 88 C-3.72040176 86.87609482 -6.55098552 87.05355616 -11 89 C-11.886875 89.70125 -12.77375 90.4025 -13.6875 91.125 C-18.44535703 93.81812662 -22.65159646 93.77336124 -28 93 C-31.125 91.5625 -31.125 91.5625 -33 89 C-33.40185547 86.78100586 -33.40185547 86.78100586 -33.6171875 84.33984375 C-33.69308105 83.52765381 -33.76897461 82.71546387 -33.84716797 81.87866211 C-33.92281982 80.94872437 -33.92281982 80.94872437 -34 80 C-32.91468994 80.00523682 -31.82937988 80.01047363 -30.71118164 80.01586914 C-26.69882018 80.03391836 -22.68646233 80.04543171 -18.67407227 80.05493164 C-16.93480832 80.05997204 -15.19554864 80.0668043 -13.45629883 80.07543945 C-10.96174063 80.08751792 -8.46723827 80.09323108 -5.97265625 80.09765625 C-4.7992141 80.10539818 -4.7992141 80.10539818 -3.60206604 80.11329651 C-1.73432886 80.11349226 0.13329204 80.06199694 2 80 C3.44685009 78.76946545 3.44685009 78.76946545 3.3125 75.0625 C3.2293065 67.61073938 0.28992997 60.28992997 -5 55 C-17.34384591 45.39923096 -33.28741558 47.35866293 -43.5390625 58.703125 Z " fill="#010101" transform="translate(180,54)"/>
<path d="M0 0 C3.54150893 -0.08761663 7.08273633 -0.14059739 10.625 -0.1875 C11.62402344 -0.21263672 12.62304688 -0.23777344 13.65234375 -0.26367188 C19.12507171 -0.31803672 23.39960965 -0.34438717 28 3 C29.84917324 5.81395929 30.58923421 8.668233 31 12 C29.77066791 16.34364006 27.73342082 18.74073431 23.94165039 21.18188477 C19.89165683 22.88835131 15.50498171 22.44475778 11.1875 22.3125 C9.73827148 22.29799805 9.73827148 22.29799805 8.25976562 22.28320312 C1.16858817 22.16858817 1.16858817 22.16858817 0 21 C-0.08685603 19.43827255 -0.10702219 17.87270656 -0.09765625 16.30859375 C-0.09443359 15.36435547 -0.09121094 14.42011719 -0.08789062 13.44726562 C-0.07951172 12.45404297 -0.07113281 11.46082031 -0.0625 10.4375 C-0.05798828 9.44041016 -0.05347656 8.44332031 -0.04882812 7.41601562 C-0.03700007 4.94395151 -0.02051849 2.47200482 0 0 Z " fill="#010101" transform="translate(80,124)"/>
<path d="M0 0 C3.37586685 -0.10831658 6.74823231 -0.18746727 10.125 -0.25 C11.07632813 -0.28351563 12.02765625 -0.31703125 13.0078125 -0.3515625 C18.96615106 -0.4343172 22.5673825 -0.15648723 27 4 C28.46867782 7.35697787 28.30673898 10.83439187 27.375 14.375 C25.03752926 17.13746542 22.03809423 17.9055447 18.50463867 18.22705078 C17.6510376 18.21657715 16.79743652 18.20610352 15.91796875 18.1953125 C14.98662109 18.18886719 14.05527344 18.18242188 13.09570312 18.17578125 C12.13599609 18.15902344 11.17628906 18.14226562 10.1875 18.125 C9.20845703 18.11597656 8.22941406 18.10695313 7.22070312 18.09765625 C4.81369652 18.07417326 2.40681636 18.03830477 0 18 C0 12.06 0 6.12 0 0 Z " fill="#020202" transform="translate(80,96)"/>
<path d="M0 0 C0.7734375 0.09023437 1.546875 0.18046875 2.34375 0.2734375 C5.62655884 0.80867807 7.13379421 1.11794584 9.125 3.875 C10.45669528 6.53839057 11.17220864 8.67487776 11.5 11.625 C10.5 12.625 10.5 12.625 8.18334961 12.73852539 C7.18311768 12.73328857 6.18288574 12.72805176 5.15234375 12.72265625 C4.07275391 12.71943359 2.99316406 12.71621094 1.88085938 12.71289062 C0.74455078 12.70451172 -0.39175781 12.69613281 -1.5625 12.6875 C-2.70267578 12.68298828 -3.84285156 12.67847656 -5.01757812 12.67382812 C-7.84510351 12.66199747 -10.6725264 12.6455141 -13.5 12.625 C-12.88624177 6.8283945 -12.11843804 4.36373556 -7.5 0.625 C-4.46268644 -0.38743785 -3.09613977 -0.38185724 0 0 Z " fill="#020202" transform="translate(158.5,113.375)"/>
<path d="M0 0 C0.99 0.495 0.99 0.495 2 1 C1.01 1.495 1.01 1.495 0 2 C0 1.34 0 0.68 0 0 Z M-1 2 C-0.34 2.66 0.32 3.32 1 4 C0.625 6.125 0.625 6.125 0 8 C-0.99 7.67 -1.98 7.34 -3 7 C-2.34 5.35 -1.68 3.7 -1 2 Z " fill="#090909" transform="translate(44,80)"/>
<path d="" fill="#000000" transform="translate(0,0)"/>
<path d="" fill="#000000" transform="translate(0,0)"/>
</svg>
